<mxfile host="app.diagrams.net" modified="2022-03-20T05:10:47.626Z" agent="5.0 (Windows)" etag="9iiFafGv3a4SHGwvTK3c" version="17.1.3" type="github">
  <diagram id="sUjo1DRn6kEamrfpw0mK" name="Page-1">
    <mxGraphModel dx="1422" dy="780" grid="1" gridSize="10" guides="1" tooltips="1" connect="1" arrows="1" fold="1" page="1" pageScale="1" pageWidth="850" pageHeight="1100" math="0" shadow="0">
      <root>
        <mxCell id="0" />
        <mxCell id="1" parent="0" />
        <mxCell id="2UVcR1djYALPvd4Yjzl5-1" value="" style="group" vertex="1" connectable="0" parent="1">
          <mxGeometry x="15" y="14" width="420" height="50" as="geometry" />
        </mxCell>
        <mxCell id="2UVcR1djYALPvd4Yjzl5-2" value="&lt;font size=&quot;1&quot;&gt;&lt;b style=&quot;font-size: 24px&quot;&gt;Git Architecture&lt;/b&gt;&lt;/font&gt;" style="text;html=1;resizable=0;autosize=1;align=center;verticalAlign=middle;points=[];fillColor=none;strokeColor=none;rounded=0;" vertex="1" parent="2UVcR1djYALPvd4Yjzl5-1">
          <mxGeometry x="56" y="15" width="200" height="20" as="geometry" />
        </mxCell>
        <mxCell id="2UVcR1djYALPvd4Yjzl5-3" value="" style="verticalLabelPosition=bottom;html=1;verticalAlign=top;align=center;strokeColor=none;fillColor=#00BEF2;shape=mxgraph.azure.git_repository;fontFamily=Verdana;fontSize=24;" vertex="1" parent="2UVcR1djYALPvd4Yjzl5-1">
          <mxGeometry width="50" height="50" as="geometry" />
        </mxCell>
        <mxCell id="2UVcR1djYALPvd4Yjzl5-4" value="Working copy" style="sketch=0;pointerEvents=1;shadow=0;dashed=0;html=1;strokeColor=none;labelPosition=center;verticalLabelPosition=bottom;verticalAlign=top;outlineConnect=0;align=center;shape=mxgraph.office.concepts.folder;fillColor=#DA4026;" vertex="1" parent="1">
          <mxGeometry x="200" y="400" width="80" height="75" as="geometry" />
        </mxCell>
        <mxCell id="2UVcR1djYALPvd4Yjzl5-5" value="Staging index" style="sketch=0;pointerEvents=1;shadow=0;dashed=0;html=1;strokeColor=none;labelPosition=center;verticalLabelPosition=bottom;verticalAlign=top;outlineConnect=0;align=center;shape=mxgraph.office.concepts.folder;fillColor=#7FBA42;" vertex="1" parent="1">
          <mxGeometry x="200" y="259" width="80" height="80" as="geometry" />
        </mxCell>
        <mxCell id="2UVcR1djYALPvd4Yjzl5-6" value="Repository" style="sketch=0;pointerEvents=1;shadow=0;dashed=0;html=1;strokeColor=none;labelPosition=center;verticalLabelPosition=bottom;verticalAlign=top;outlineConnect=0;align=center;shape=mxgraph.office.concepts.folder;fillColor=#2072B8;" vertex="1" parent="1">
          <mxGeometry x="201" y="120" width="79" height="80" as="geometry" />
        </mxCell>
        <mxCell id="2UVcR1djYALPvd4Yjzl5-16" value="" style="html=1;shadow=0;dashed=0;align=center;verticalAlign=middle;shape=mxgraph.arrows2.uTurnArrow;dy=4.5;arrowHead=19;dx2=18.75;strokeColor=#66CC00;" vertex="1" parent="1">
          <mxGeometry x="110" y="310" width="79" height="144" as="geometry" />
        </mxCell>
        <mxCell id="2UVcR1djYALPvd4Yjzl5-17" value="git commit" style="html=1;shadow=0;dashed=0;align=center;verticalAlign=middle;shape=mxgraph.arrows2.uTurnArrow;dy=4.5;arrowHead=19;dx2=18.75;strokeColor=#007FFF;" vertex="1" parent="1">
          <mxGeometry x="110" y="156" width="79" height="144" as="geometry" />
        </mxCell>
        <mxCell id="2UVcR1djYALPvd4Yjzl5-21" value="git add" style="text;html=1;align=center;verticalAlign=middle;resizable=0;points=[];autosize=1;strokeColor=none;fillColor=none;" vertex="1" parent="1">
          <mxGeometry x="120" y="372" width="50" height="20" as="geometry" />
        </mxCell>
      </root>
    </mxGraphModel>
  </diagram>
</mxfile>
